<svg id="Layer_1" height="512" viewBox="0 0 512 512" width="512" xmlns="http://www.w3.org/2000/svg" data-name="Layer 1"><path d="m339.36 45.49 4.85 12.16a138.925 138.925 0 0 1 .28 101.95 15.185 15.185 0 0 0 -4.29-.62h-4.01v-26.92c0-12.19-3.43-21.83-9.39-29.75s-14.43-14.12-24.51-19.44c-4.56 17.95-25.27 24.49-50.12 24.49-22.91 0-42.3-4.5-48.77-20.37l-.1-.26c-16.63 11.45-27.53 23.61-27.53 45.33v26.92h-4.01a14.981 14.981 0 0 0 -6.21 1.34l-4.89-12.28a105.606 105.606 0 0 1 0-78.1l.76-1.92a16.455 16.455 0 0 1 15.29-10.37 19.8 19.8 0 0 0 19.82-19.82 19.859 19.859 0 0 1 15.29-19.31 18.756 18.756 0 0 1 6.64-.25c14.23 1.78 96.91 11.46 125.75-.27v10.12a33.3 33.3 0 0 1 -4.85 17.37z" fill="#d8a43d"/><path d="m165.55 160.32a14.981 14.981 0 0 1 6.21-1.34h4.01v-26.92c0-21.72 10.9-33.88 27.53-45.33l.1.26c6.47 15.87 25.86 20.37 48.77 20.37 24.85 0 45.56-6.54 50.12-24.49 10.08 5.32 18.55 11.52 24.51 19.44s9.39 17.56 9.39 29.75v26.92h4.01a15.185 15.185 0 0 1 4.29.62 15.042 15.042 0 0 1 -4.29 29.46h-4.01v1.93l-32.19 3.19a40.07 40.07 0 0 1 -37.11-17.41 12.51 12.51 0 0 0 -20.81.15l-.02.04a40.047 40.047 0 0 1 -38.15 17.81l-32.14-3.78v-1.93h-4.01a15.042 15.042 0 0 1 -6.21-28.74z" fill="#ffd8b7"/><path d="m316.61 250.68a80.214 80.214 0 0 1 -117.35 4.21q-2.01-2.01-3.87-4.16a79.906 79.906 0 0 1 -19.62-52.56v-7.18l32.14 3.78a40.047 40.047 0 0 0 38.15-17.81l.02-.04a12.51 12.51 0 0 1 20.81-.15 40.07 40.07 0 0 0 37.11 17.41l32.19-3.19v7.18a79.883 79.883 0 0 1 -19.58 52.51z" fill="#555e6d"/><path d="m316.61 311.5.29.12a137.065 137.065 0 0 1 -121.8 0l.29-.12v-60.77q1.86 2.145 3.87 4.16a80.214 80.214 0 0 0 117.35-4.21z" fill="#edc6a9"/><path d="m440 405.6v43.99h-368v-43.99q.15-1.785.39-3.54h366.98l.23-.03c.17 1.18.3 2.37.4 3.57z" fill="#d4e1f4"/><path d="m440 449.59v44.41h-368v-44.41h367.37z" fill="#6d7486"/><path d="m439.6 402.03-.23.03h-366.98a71.805 71.805 0 0 1 29.52-49h308.09l.03-.04a71.809 71.809 0 0 1 29.57 49.01z" fill="#6d7486"/><path d="m410.03 353.02-.03.04h-308.08a72.017 72.017 0 0 1 9.54-5.74l83.64-35.7a137.065 137.065 0 0 0 121.8 0l83.64 35.7a71.631 71.631 0 0 1 9.49 5.7z" fill="#d4e1f4"/><path d="m175.77 158.98v-26.92c0-17.511 7.088-28.806 18.548-38.527a105.544 105.544 0 0 1 6.342-23.593l.76-1.92a16.455 16.455 0 0 1 15.29-10.37 19.8 19.8 0 0 0 19.82-19.82 19.712 19.712 0 0 1 4.36-12.4 19.989 19.989 0 0 1 4.764-4.287c-12.908-1.143-23.011-2.35-27.194-2.873a18.756 18.756 0 0 0 -6.64.25 19.859 19.859 0 0 0 -15.29 19.31 19.8 19.8 0 0 1 -19.82 19.82 16.455 16.455 0 0 0 -15.29 10.37l-.76 1.92a105.606 105.606 0 0 0 0 78.1l4.89 12.28a14.981 14.981 0 0 1 6.21-1.34z" fill="#c6943c"/><path d="m215.77 194.9v-5.84h-4.01a15.042 15.042 0 0 1 -6.21-28.74l-4.89-12.28a105.592 105.592 0 0 1 -6.342-54.507c-11.46 9.721-18.548 21.016-18.548 38.527v26.92h-4.01a15.04 15.04 0 0 0 0 30.08h4.01v1.93l32.14 3.78a40.011 40.011 0 0 0 7.86.13z" fill="#edc6a9"/><path d="m235.39 275.7v-24.97a79.906 79.906 0 0 1 -19.62-52.56v-3.27a40.011 40.011 0 0 1 -7.86-.132l-32.14-3.78v7.18a79.906 79.906 0 0 0 19.62 52.56q1.86 2.145 3.87 4.16a80.178 80.178 0 0 0 36.13 20.812z" fill="#4a535e"/><path d="m112.39 402.06h-40q-.24 1.755-.39 3.54v43.99h40.188z" fill="#bcc8d3"/><path d="m72 449.59v44.41h40l.188-44.41z" fill="#5a606d"/><path d="m141.91 353.06h-40a71.805 71.805 0 0 0 -29.52 49h40a71.805 71.805 0 0 1 29.52-49z" fill="#5a606d"/><path d="m141.92 353.06a72.017 72.017 0 0 1 9.54-5.74l64.348-27.466a136.967 136.967 0 0 1 -20.708-8.234l-83.64 35.7a72.017 72.017 0 0 0 -9.54 5.74z" fill="#bcc8d3"/></svg>